<svg id="Capa_1" enable-background="new 0 0 512 512" height="512" viewBox="0 0 512 512" width="512" xmlns="http://www.w3.org/2000/svg"><g><path d="m464.635 511.998c16.9 0 30.649-13.749 30.649-30.649 0-37.249 0-138.12 0-171.35 10.312-4.271 15.342-16.9 9.542-27.406l-83.071-150.446c-12.219-22.139-35.519-35.891-60.806-35.891h-7.928v-27.243c11.314-3.262 19.616-13.703 19.616-26.053v-15.844c-.001-14.952-12.165-27.116-27.117-27.116h-69.902c-14.952 0-27.116 12.164-27.116 27.116v15.844c0 12.35 8.302 22.791 19.616 26.053v27.243h-117.053c-25.287 0-48.587 13.752-60.806 35.89l-83.082 150.447c-7.159 12.967 2.212 28.884 17.047 28.884h12.512v166.535c0 18.741 15.247 33.987 33.987 33.987 15.612.001 380.178-.001 393.912-.001zm-361.651-14.998v-88.671c0-6.351 5.167-11.517 11.517-11.517h32.735c6.35 0 11.516 5.166 11.516 11.517v88.671zm122.015-118.68h255.285v51.844h-255.285zm255.285-15h-255.285v-51.842h255.285zm0 118.029c0 8.629-7.02 15.649-15.649 15.649l-245.447.002c3.564-6.017 5.811-10.818 5.811-18.987v-32.849h255.285zm-197.166-411.273h54.902v61.63h-54.902c0-6.824 0-55.405 0-61.63zm-19.616-27.116v-15.844c0-6.681 5.435-12.116 12.116-12.116h69.902c6.681 0 12.116 5.436 12.116 12.116v15.844c0 6.681-5.435 12.116-12.116 12.116h-69.902c-6.681 0-12.116-5.435-12.116-12.116zm-243.194 246.884 83.083-150.448c9.581-17.357 27.848-28.14 47.674-28.14h117.053v27.95c0 4.142 3.358 7.5 7.5 7.5h69.902c4.142 0 7.5-3.358 7.5-7.5v-27.95h7.928c19.826 0 38.093 10.782 47.675 28.141l83.072 150.447c1.643 2.977-.499 6.624-3.893 6.633-.006 0-.011-.001-.017-.001h-270.29c-.007 0-.014.001-.021.001-6.48-.009-12.482-3.531-15.643-9.249l-64.401-116.629c-2.848-5.158-10.282-5.161-13.131 0l-64.406 116.633c-3.16 5.726-9.167 9.245-15.657 9.245h-20.012c-3.405.001-5.559-3.656-3.916-6.633zm31.429 188.169v-167.401c9.08-2.125 16.855-8.086 21.29-16.133l57.836-104.739 57.836 104.741c4.477 8.103 12.245 13.997 21.295 16.13.005 196.155-.006-95.412.004 167.402 0 10.47-8.518 18.987-18.987 18.987h-17.26v-88.671c0-14.621-11.895-26.517-26.516-26.517h-32.735c-14.621 0-26.517 11.896-26.517 26.517v88.671h-17.26c-10.469 0-18.986-8.518-18.986-18.987z"/><path d="m286.13 243.82h48.879c4.142 0 7.5-3.358 7.5-7.5s-3.358-7.5-7.5-7.5h-48.879c-4.142 0-7.5 3.358-7.5 7.5s3.358 7.5 7.5 7.5z"/><path d="m364.962 217.716c6.877 0 12.51-5.639 12.51-12.5 0-6.407-4.925-11.827-11.28-12.439-.81-.08-1.64-.08-2.46 0-6.446.638-11.27 6.098-11.27 12.439 0 6.828 5.564 12.5 12.5 12.5z"/><path d="m256.172 217.716c6.849 0 12.5-5.574 12.5-12.5 0-6.317-4.806-11.801-11.27-12.439-.82-.08-1.64-.08-2.46 0-6.38.631-11.27 5.984-11.27 12.439 0 7.055 5.814 12.5 12.5 12.5z"/></g></svg>