<svg id="Capa_1" enable-background="new 0 0 512 512" height="512" viewBox="0 0 512 512" width="512" xmlns="http://www.w3.org/2000/svg"><g><path d="m468.883 162.3c-9.876-9.877-25.116-12.031-37.059-5.239-21.971 12.497-49.82 8.721-67.722-9.182-17.898-17.898-21.671-45.744-9.176-67.716 6.793-11.942 4.639-27.182-5.238-37.058l-34.123-34.124c-11.975-11.975-31.46-11.975-43.435 0-10.363 10.363-243.783 243.783-255.649 255.649-21.95 21.95-21.95 57.665 0 79.615l151.256 151.255c21.998 21.998 57.615 22.001 79.615 0 12.226-12.226 245.713-245.713 255.648-255.648 11.975-11.975 11.975-31.46 0-43.435zm-232.137 322.594c-16.136 16.136-42.264 16.138-58.402 0l-151.257-151.256c-16.101-16.102-16.101-42.3 0-58.402l161.403-161.402 24.664 24.664-160.636 160.636c-2.927 2.926-2.929 7.678 0 10.606l149.723 149.723c2.937 2.938 7.686 2.921 10.606 0l160.636-160.636 24.664 24.664zm-29.202-41.34-139.116-139.117 155.333-155.333 139.117 139.117zm284.85-214.308-83.639 83.639c-10.69-10.69-199.36-199.36-209.658-209.658l83.639-83.64c6.127-6.126 16.095-6.127 22.222 0l34.124 34.124c5.117 5.117 6.27 12.944 2.806 19.036-15.824 27.824-11.05 63.08 11.608 85.738 22.662 22.663 57.921 27.438 85.744 11.614 6.092-3.465 13.92-2.311 19.037 2.806l34.117 34.117c6.126 6.128 6.126 16.097 0 22.224z"/><path d="m309.269 169.817c-2.929-2.929-7.678-2.929-10.606 0-2.929 2.929-2.929 7.678 0 10.606l32.896 32.896c2.929 2.929 7.678 2.929 10.606 0 2.929-2.929 2.929-7.678 0-10.606z"/><path d="m310.563 142.75c4.565-2.989 6.274-9.381 2.91-14.56-3.793-5.545-11.496-6.25-16.16-1.59-3.999 3.999-4.182 10.583 0 14.85 3.787 3.707 9.341 3.955 13.25 1.3z"/><path d="m147.942 323.821c1.562 3.822 5.936 5.677 9.78 4.104l126.252-51.608c3.834-1.567 5.672-5.946 4.104-9.78-1.567-3.833-5.946-5.672-9.78-4.104l-126.252 51.607c-3.834 1.568-5.672 5.947-4.104 9.781z"/><path d="m199.857 218.132c-13.491 13.491-14.689 34.243-2.672 46.261 12.385 12.385 33.188 10.4 46.261-2.672 13.083-13.083 15.128-33.805 2.672-46.26-12.482-12.481-33.203-10.387-46.261 2.671zm35.653 7.935c5.575 5.575 5.625 16.75-2.672 25.047-7.643 7.642-18.879 8.84-25.048 2.672-6.168-6.169-4.97-17.405 2.672-25.048 8.48-8.479 19.618-8.102 25.048-2.671z"/><path d="m189.459 329.34c-13.491 13.491-14.69 34.243-2.672 46.26 12.384 12.386 33.188 10.4 46.261-2.672 13.491-13.491 14.69-34.243 2.672-46.26-12.017-12.018-32.77-10.819-46.261 2.672zm32.981 32.982c-8.324 8.323-19.497 8.224-25.048 2.672-6.168-6.169-4.97-17.405 2.672-25.047 6.994-6.994 18.4-9.319 25.048-2.672 5.576 5.574 5.625 16.751-2.672 25.047z"/><path d="m383.783 215.97c4.565-2.989 6.274-9.381 2.91-14.56-3.793-5.545-11.496-6.25-16.16-1.59-3.999 3.999-4.182 10.583 0 14.85 3.787 3.707 9.341 3.955 13.25 1.3z"/></g></svg>