<svg id="Capa_1" enable-background="new 0 0 512 512" height="512" viewBox="0 0 512 512" width="512" xmlns="http://www.w3.org/2000/svg"><g><path d="m253.135 164.321c6.149 0 11.135-4.985 11.135-11.134 0-6.15-4.985-11.135-11.135-11.135s-11.135 4.985-11.135 11.135c0 6.149 4.986 11.134 11.135 11.134z"/><path d="m177.079 190.696h47.155c4.142 0 7.5-3.357 7.5-7.5 0-4.142-3.358-7.5-7.5-7.5h-47.155c-4.142 0-7.5 3.358-7.5 7.5 0 4.143 3.358 7.5 7.5 7.5z"/><path d="m148.178 164.321c6.149 0 11.135-4.985 11.135-11.134 0-6.15-4.985-11.135-11.135-11.135s-11.135 4.985-11.135 11.135c0 6.149 4.986 11.134 11.135 11.134z"/><path d="m198.862 382.784c-6.15 0-11.135 4.985-11.135 11.135s4.985 11.135 11.135 11.135c6.149 0 11.135-4.985 11.135-11.135s-4.985-11.135-11.135-11.135z"/><path d="m169.961 416.429h-47.154c-4.143 0-7.5 3.358-7.5 7.5s3.357 7.5 7.5 7.5h47.154c4.142 0 7.5-3.358 7.5-7.5s-3.358-7.5-7.5-7.5z"/><circle cx="93.905" cy="393.919" r="11.135"/><path d="m433.976 299.628c7.513-8.206 12.106-19.127 12.106-31.104v-145.35c0-25.428-20.682-46.114-46.104-46.114h-27.311c7.488-8.19 12.064-19.085 12.064-31.03 0-25.381-20.649-46.03-46.03-46.03-22.139 0-42.076 11.298-53.451 29.55-7.844-6.784-18.053-10.902-29.213-10.902s-21.37 4.118-29.213 10.902c-11.374-18.252-31.312-29.55-53.451-29.55-25.381 0-46.03 20.649-46.03 46.03 0 11.963 4.591 22.872 12.099 31.066-24.765.756-44.683 21.127-44.683 46.079v92.11c-19.392 7.336-33.22 26.088-33.22 48.018 0 14.177 5.778 27.028 15.102 36.325h-34.745c-22.799 0-41.347 18.549-41.347 41.348v129.677c0 22.799 18.549 41.347 41.347 41.347h270.031 158.165c22.805 0 41.358-18.548 41.358-41.348v-129.676c0-22.799-18.553-41.348-41.358-41.348zm-33.998-207.567c17.151 0 31.104 13.958 31.104 31.114v145.35c0 17.15-13.953 31.104-31.104 31.104-65.855-.005-61.874.012-62.736-.014 9.491-9.445 14.995-22.36 14.995-36.312 0-25.966-19.514-47.872-45.148-50.955v-89.173c0-17.156 13.953-31.114 31.104-31.114h.508zm-149.457 166.872c9.366-19.869 29.105-31.956 50.391-31.956 20.03 0 36.325 16.296 36.325 36.325 0 20.17-16.458 36.325-36.325 36.325h-48.906c3.022-4.804 4.721-10.789 4.721-16.6 0 0 0 0 0-.001.001-8.265-2.13-16.73-6.206-24.093zm88.18-243.933c17.11 0 31.03 13.92 31.03 31.03s-13.92 31.03-31.03 31.03h-.508-40.913c.122-.327 3.481-6.123 3.481-13.689 0-7.467-1.934-14.9-5.35-21.221 7.991-16.607 24.614-27.15 43.29-27.15zm-82.664 18.647c16.546 0 29.724 13.524 29.724 29.724 0 7.548-6.141 13.689-13.689 13.689h-32.071c-7.518 0-13.689-6.111-13.689-13.689.001-16.332 13.302-29.724 29.725-29.724zm-82.664-18.647c18.676 0 35.3 10.543 43.29 27.15-3.354 6.21-5.35 13.622-5.35 21.221 0 7.378 3.451 13.589 3.481 13.689h-41.422c-17.11 0-31.03-13.92-31.03-31.03.001-17.11 13.921-31.03 31.031-31.03zm-63.614 108.175c0-17.156 13.953-31.114 31.104-31.114h163.331c-7.496 8.16-12.105 19.305-12.105 31.114v89.352c-21.598 2.661-40.527 15-51.677 33.531-.011.019-.023.037-.034.056-9.192-8.349-21.205-12.926-33.49-12.926-12.048 0-24.077 4.315-33.494 12.898-12.581-20.955-35.298-34.108-60.531-34.108-.981 0-1.955.034-2.923.089-.061.003-.121.002-.182.006v-88.898zm131.969 159.852c0 9.154-7.447 16.601-16.601 16.601h-36.478c-9.195 0-16.601-7.486-16.601-16.601 0-19.092 15.536-34.839 34.84-34.839 19.138 0 34.84 15.551 34.84 34.839zm-165.189-19.724c0-20.232 16.541-36.325 36.325-36.325 21.384 0 41.046 12.043 50.393 31.953-3.952 7.134-6.208 15.651-6.208 24.097 0 5.691 1.567 11.522 4.721 16.601h-48.906c-20.03-.001-36.325-16.296-36.325-36.326zm203.546 233.697h-238.189c-14.528 0-26.347-11.819-26.347-26.348v-129.676c0-14.528 11.819-26.348 26.347-26.348h238.188c-5.774 6.867-9.505 16.406-9.505 26.348v129.677c.001 9.698 3.548 19.263 9.506 26.347zm216.366-156.024v129.677c0 14.528-11.824 26.348-26.358 26.348h-158.166c-14.528 0-26.347-11.819-26.347-26.348v-129.677c0-14.528 11.819-26.348 26.347-26.348h158.165c14.534 0 26.359 11.819 26.359 26.348z"/></g></svg>