<svg id="Capa_1" enable-background="new 0 0 512 512" height="512" viewBox="0 0 512 512" width="512" xmlns="http://www.w3.org/2000/svg"><g><path d="m314.885 216.191c-6.9 0-12.494 5.594-12.494 12.494s5.594 12.494 12.494 12.494 12.494-5.594 12.494-12.494-5.594-12.494-12.494-12.494z"/><path d="m282.456 254.86h-52.911c-4.142 0-7.499 3.357-7.499 7.499 0 4.141 3.357 7.499 7.499 7.499h52.911c4.141 0 7.499-3.358 7.499-7.499 0-4.142-3.358-7.499-7.499-7.499z"/><path d="m197.115 216.191c-6.9 0-12.494 5.594-12.494 12.494s5.594 12.494 12.494 12.494 12.494-5.594 12.494-12.494-5.593-12.494-12.494-12.494z"/><path d="m503.262 139.282c0-.001 0-.002 0-.004-3.564-57.112-37.365-103.803-86.319-125.893-51.874-23.407-111.634-15.78-160.946 20.251-49.31-36.025-109.076-43.646-160.962-20.231-49.132 22.172-82.747 68.967-86.295 125.876v.006c-2.855 45.77 14.007 94.146 48.763 139.899 0 0 0 .001.001.002 27.671 36.42 66.291 71.015 115.228 103.299v56.613h-11.875c-20.099 0-36.451 16.351-36.451 36.45s16.353 36.45 36.452 36.45h48.326c9.823 0 18.982-3.916 25.703-10.623 6.594 6.561 15.678 10.623 25.693 10.623h48.326c20.099 0 36.451-16.351 36.451-36.45v-97.133c46.052-31.112 82.615-64.331 109.131-99.23 0 0 0 0 0-.001 34.756-45.739 51.622-94.117 48.774-139.904zm-272.626 315.489c-4.335 6.255-6.505 13.575-6.505 20.779 0 5.718 1.129 8.93 2.305 12.748-4.01 5.438-10.36 8.703-17.251 8.703h-48.326c-11.829 0-21.452-9.623-21.452-21.451s9.623-21.451 21.452-21.451h19.374c4.142 0 7.499-3.358 7.499-7.499v-29.78c11.081 6.619 22.577 13.131 34.51 19.523 2.715 1.454 5.522 2.721 8.394 3.809zm99.722 20.779c0 11.828-9.623 21.451-21.452 21.451h-48.326c-11.777 0-21.451-9.579-21.451-21.451 0-11.879 9.67-21.451 21.451-21.451h19.374c4.142 0 7.499-3.358 7.499-7.499v-9.078c.773-.379 1.54-.77 2.299-1.177 14.137-7.572 27.663-15.311 40.605-23.201v62.406zm-84.724-33.232v-19.195c8.883 2.018 18.196 1.423 26.821-1.816v17.793h-11.875c-5.324-.001-10.382 1.157-14.946 3.218zm196.911-172.204c-26.149 34.416-62.621 67.246-108.847 98.063-20.611 12.878-41.173 25.843-62.61 37.329-10.068 5.401-22.414 4.351-30.185-.002-18.331-9.777-38.354-21.493-56.578-33.358-.008-.005-.017-.009-.025-.014-49.073-31.951-87.581-66.124-114.853-102.019-32.55-42.85-48.366-87.768-45.737-129.899 3.14-50.363 32.111-92.657 77.495-113.138 48.352-21.82 104.498-13.645 150.189 21.868 2.736 2.117 6.602 2.058 9.205 0 45.695-35.518 101.835-43.7 150.175-21.887 45.396 20.484 74.375 62.785 77.519 113.156 2.621 42.146-13.198 87.065-45.748 129.901z"/></g></svg>