<svg id="Layer_1" enable-background="new 0 0 512 512" height="512" viewBox="0 0 512 512" width="512" xmlns="http://www.w3.org/2000/svg"><path d="m494.086 426.901-118.824-118.822c18.472-30.304 29.123-65.875 29.123-103.887 0-110.386-89.806-200.192-200.193-200.192s-200.192 89.806-200.192 200.192 89.806 200.192 200.192 200.192c38.011 0 73.581-10.65 103.885-29.121l118.824 118.823c9.261 9.261 21.426 13.892 33.592 13.892 12.165 0 24.331-4.631 33.593-13.892 18.521-18.524 18.521-48.661 0-67.185zm-466.086-222.709c0-97.152 79.04-176.192 176.192-176.192s176.192 79.04 176.192 176.192c0 97.153-79.04 176.192-176.192 176.192s-176.192-79.039-176.192-176.192zm449.115 272.923c-9.164 9.165-24.077 9.165-33.243 0l-115.785-115.784c12.334-9.746 23.498-20.909 33.243-33.243l115.785 115.784c9.164 9.165 9.164 24.078 0 33.243zm-272.923-412.489c-76.956 0-139.564 62.609-139.564 139.565s62.608 139.565 139.564 139.565 139.564-62.608 139.564-139.565-62.608-139.565-139.564-139.565zm0 255.131c-63.723 0-115.564-51.842-115.564-115.565s51.842-115.566 115.564-115.566 115.564 51.842 115.564 115.565-51.841 115.566-115.564 115.566z"/></svg>