<svg id="Capa_1" enable-background="new 0 0 512 512" height="512" viewBox="0 0 512 512" width="512" xmlns="http://www.w3.org/2000/svg"><g><path d="m28.714 153.586 34.702 145.27c-14.713 4.046-25.557 17.534-25.557 33.516 0 19.168 15.594 34.762 34.762 34.762h4.421c-4.879 8.371-7.69 18.088-7.69 28.456 0 31.261 25.433 56.693 56.693 56.693s56.693-25.432 56.693-56.693c0-10.368-2.811-20.085-7.69-28.456h48.895c-4.879 8.371-7.69 18.088-7.69 28.456 0 31.261 25.432 56.693 56.693 56.693s56.693-25.432 56.693-56.693c0-12.171-3.868-23.45-10.422-32.697 24.96-8.481 44.515-28.98 51.421-54.952l45.541-171.139c1.188-4.452 5.229-7.561 9.825-7.561h51.232c19.168 0 34.762-15.594 34.762-34.762s-15.594-34.762-34.762-34.762h-51.232c-22.413 0-43.12 9.404-57.816 24.883h-333.426c-19.168 0-34.762 15.594-34.762 34.762 0 17.104 12.421 31.352 28.714 34.224zm274.739 136.475c-1.178 4.44-5.213 7.549-9.822 7.549h-215.09l-34.277-143.486h295.363zm-177.408 147.222c-22.99 0-41.693-18.704-41.693-41.693 0-23.125 18.848-41.693 41.693-41.693 22.907 0 41.693 18.628 41.693 41.693.001 22.989-18.703 41.693-41.693 41.693zm146.902 0c-22.99 0-41.693-18.704-41.693-41.693 0-22.862 18.59-41.693 41.693-41.693 22.902 0 41.693 18.628 41.693 41.693 0 22.989-18.703 41.693-41.693 41.693zm153.058-362.566h51.232c10.897 0 19.762 8.865 19.762 19.762 0 10.896-8.865 19.762-19.762 19.762h-51.232c-11.379 0-21.378 7.686-24.319 18.697l-45.542 171.147c-6.232 23.433-25.144 41.39-48.674 46.547-9.814-7.539-21.997-11.736-34.523-11.736-13.301 0-26.15 4.641-36.396 13.237h-74.11c-9.973-8.367-22.829-13.237-36.396-13.237-13.345 0-26.254 4.73-36.396 13.237h-17.028c-10.896 0-19.762-8.865-19.762-19.762s8.865-19.762 19.762-19.762h221.01c11.39 0 21.396-7.683 24.318-18.696 49.785-187.071 46.476-175.531 49.71-182.411 10.772-22.511 33.51-36.785 58.346-36.785zm-391.243 24.883h322.191c-1.154 2.01-2.176 4.008-3.094 5.996-4.273 9.115-5.686 16.418-10.239 33.528h-308.858c-10.896 0-19.762-8.865-19.762-19.762s8.865-19.762 19.762-19.762z"/><path d="m126.045 369.24c-14.529 0-26.35 11.82-26.35 26.35 0 14.529 11.82 26.35 26.35 26.35s26.35-11.821 26.35-26.35-11.82-26.35-26.35-26.35zm0 37.699c-6.258 0-11.35-5.092-11.35-11.35s5.091-11.35 11.35-11.35 11.35 5.091 11.35 11.35-5.091 11.35-11.35 11.35z"/><path d="m272.947 369.24c-14.529 0-26.35 11.82-26.35 26.35 0 14.529 11.82 26.35 26.35 26.35s26.35-11.821 26.35-26.35c-.001-14.529-11.821-26.35-26.35-26.35zm0 37.699c-6.258 0-11.35-5.092-11.35-11.35s5.091-11.35 11.35-11.35 11.35 5.091 11.35 11.35c-.001 6.259-5.092 11.35-11.35 11.35z"/><path d="m173.052 249.979h45.973c4.142 0 7.5-3.358 7.5-7.5s-3.358-7.5-7.5-7.5h-45.973c-4.142 0-7.5 3.358-7.5 7.5s3.358 7.5 7.5 7.5z"/><path d="m142.633 224.499c1.504.305 3.094.283 4.49 0 5.489-1.127 9.25-5.893 9.25-11.28 0-5.577-4.025-10.27-9.25-11.27-1.49-.3-3.01-.3-4.49 0-5.372 1.014-9.26 5.844-9.26 11.27 0 5.463 3.851 10.184 9.26 11.28z"/><path d="m244.963 224.499c1.504.305 3.094.283 4.49 0 5.489-1.127 9.25-5.893 9.25-11.28 0-5.577-4.025-10.27-9.25-11.27-1.49-.3-3.01-.3-4.49 0-5.372 1.014-9.26 5.844-9.26 11.27 0 5.463 3.851 10.184 9.26 11.28z"/></g></svg>