<svg id="Layer_1" enable-background="new 0 0 512 512" height="512" viewBox="0 0 512 512" width="512" xmlns="http://www.w3.org/2000/svg"><path d="m491.248 458.423-63.101-360.471c-.67-3.828-3.994-6.621-7.88-6.621h-81.027v-7.462c0-41.834-34.035-75.869-75.869-75.869-10.347 0-20.214 2.088-29.21 5.856-8.996-3.768-18.863-5.856-29.21-5.856-41.834 0-75.869 34.035-75.869 75.869v7.462h-65.006c-4.143 0-7.6 3.162-7.968 7.288l-35.444 396.669c-.2 2.236.55 4.454 2.065 6.111 1.516 1.657 3.658 2.601 5.903 2.601h366.504c1.042 0 2.073-.204 3.037-.599l88.231-36.198c3.476-1.426 5.492-5.079 4.844-8.78zm-17.971-9.87-32.761-9.484-40.737-331.738h13.767zm-102.625-341.222h13.006l41.227 335.729-23.529 31.333zm65.647 347.174 22.808 6.603-40.129 16.463zm-172.928-430.505c33.012 0 59.869 26.857 59.869 59.869v7.462h-42.42v-7.462c0-23.75-10.977-44.977-28.115-58.899 3.464-.625 7.024-.97 10.666-.97zm-29.21 7.637c18.276 10.261 30.659 29.823 30.659 52.232v7.462h-61.318v-7.462c0-22.409 12.383-41.971 30.659-52.232zm-89.079 52.232c0-33.012 26.857-59.869 59.869-59.869 3.642 0 7.202.345 10.666.971-17.138 13.922-28.115 35.149-28.115 58.898v7.462h-42.42zm-73.689 23.462h57.689v23.274c-12.543 3.505-21.774 15.028-21.774 28.674 0 16.417 13.357 29.774 29.774 29.774s29.774-13.356 29.774-29.774c0-13.646-9.231-25.169-21.774-28.674v-23.274h119.738v23.274c-12.543 3.505-21.774 15.028-21.774 28.674 0 16.417 13.357 29.774 29.774 29.774s29.774-13.356 29.774-29.774c0-13.646-9.231-25.169-21.774-28.674v-23.274h73.776l26.105 312.074h-337.193zm65.689 59.947c4.418 0 8-3.582 8-8v-11.191c3.489 2.501 5.774 6.58 5.774 11.191 0 7.595-6.179 13.774-13.774 13.774s-13.774-6.179-13.774-13.774c0-4.611 2.285-8.69 5.774-11.191v11.191c0 4.419 3.582 8 8 8zm135.738 0c4.418 0 8-3.582 8-8v-11.191c3.489 2.501 5.774 6.58 5.774 11.191 0 7.595-6.179 13.774-13.774 13.774s-13.774-6.179-13.774-13.774c0-4.611 2.285-8.69 5.774-11.191v11.191c0 4.419 3.581 8 8 8zm-230.742 268.127h339.962l4.4 52.595h-349.061z"/></svg>