<svg id="Capa_1" enable-background="new 0 0 512 512" height="512" viewBox="0 0 512 512" width="512" xmlns="http://www.w3.org/2000/svg"><g><path d="m103.075 424.716h23.435v25.269h-8.231c-17.098 0-31.008 13.91-31.008 31.007s13.91 31.008 31.007 31.008h39.239c17.097 0 31.007-13.91 31.007-31.007v-56.276h47.391v25.269h-8.232c-17.097 0-31.007 13.91-31.007 31.007s13.91 31.007 31.008 31.007h39.239c17.098 0 31.008-13.91 31.008-31.007v-56.276h110.993c26.719 0 47.381-23.601 43.733-50.149l-30.431-221.729c-1.491-10.848-7.067-20.31-15.025-26.93v-33.104c0-24.788-9.654-48.092-27.183-65.622-17.529-17.529-40.834-27.183-65.621-27.183-15.227 0-30.188 3.754-43.556 10.869-13.281-7.101-28.186-10.869-43.671-10.869-51.173 0-92.805 41.632-92.805 92.805v23.203h-2.357c-21.191 0-39.349 15.833-42.236 36.832l-30.43 221.726c-3.637 26.472 16.935 50.15 43.733 50.15zm54.443 72.284h-39.239c-8.827 0-16.008-7.181-16.008-16.007s7.181-16.007 16.008-16.007h15.731c4.143 0 7.5-3.358 7.5-7.5v-10.416h32.015v33.923c0 8.826-7.181 16.007-16.007 16.007zm109.405 0h-39.239c-8.826 0-16.007-7.181-16.007-16.007s7.181-16.007 16.007-16.007h15.732c4.142 0 7.5-3.358 7.5-7.5v-10.416h32.015v33.923c0 8.826-7.181 16.007-16.008 16.007zm170.874-120.393c2.411 17.55-11.25 33.109-28.873 33.109h-57.877c-17.686 0-31.275-15.629-28.873-33.11l30.431-221.73c1.879-13.727 13.672-23.869 27.375-23.869 13.744 0 25.515 10.271 27.385 23.872zm-246.679-260.599v-23.203c0-9.741 3.844-18.876 10.823-25.723 6.976-6.843 16.189-10.509 25.935-10.323.335.006.666.029.998.045-4.777 11.352-7.282 23.619-7.282 36.001v23.203zm45.474-23.203c0-11.055 2.371-22.002 6.898-32.023 12.078 6.334 19.733 19.105 19.733 32.754v22.471h-26.631zm76.154-36.008c.783-.036 1.568-.053 2.355-.038 19.491.373 35.347 16.871 35.347 36.777v22.471h-30.474v-23.202c.001-12.572-2.493-24.758-7.228-36.008zm1.651-41.797c20.781 0 40.319 8.094 55.015 22.79s22.79 34.234 22.79 55.015v24.985c-3.532-1.055-8.012-1.783-12.221-1.783h-14.532v-22.47c0-28.021-22.457-51.247-50.061-51.774-3.42-.065-6.822.211-10.168.824-5.375-8.318-12.014-15.718-19.776-22.003 9.161-3.674 18.989-5.584 28.953-5.584zm-165.032 77.805c0-42.902 34.904-77.805 77.805-77.805 42.832 0 77.805 34.713 77.805 77.805v63.891c0 7.377-6.002 13.376-13.376 13.376-7.366 0-13.376-5.992-13.376-13.376 0-19.498 0-42.829 0-63.159 0-27.575-22.216-51.784-51.064-51.784-13.436 0-26.088 5.17-35.722 14.622-9.878 9.691-15.318 22.629-15.318 36.431v63.891c0 7.362-5.988 13.376-13.376 13.376-7.386 0-13.376-6.013-13.376-13.376-.002-22.631-.002-41.654-.002-63.892zm-75.163 283.801 30.431-221.725c1.871-13.61 13.64-23.874 27.375-23.874h2.357v25.688c0 15.646 12.73 28.376 28.376 28.376 15.618 0 28.376-12.702 28.376-28.376v-25.688h72.105v25.688c0 15.647 12.73 28.376 28.376 28.376 15.654 0 28.376-12.735 28.376-28.376v-25.688h27.544c-5.364 6.3-8.705 14.017-9.774 21.832l-30.431 221.726c-1.739 12.654 2.073 25.465 10.575 35.15h-214.813c-17.642.001-31.28-15.58-28.873-33.109z"/><path d="m182.143 356.773h48.72c4.142 0 7.5-3.358 7.5-7.5s-3.358-7.5-7.5-7.5h-48.72c-4.142 0-7.5 3.358-7.5 7.5s3.358 7.5 7.5 7.5z"/><path d="m259.494 330.704c.803.081 1.617.085 2.459 0 5.934-.588 10.625-5.296 11.208-11.208.701-6.772-4.283-12.965-11.208-13.668-.816-.082-1.644-.082-2.459 0-6.472.656-11.271 6.094-11.271 12.438 0 6.387 4.858 11.804 11.271 12.438z"/><path d="m151.053 330.704c.822.083 1.637.083 2.459 0 6.423-.637 11.27-6.056 11.27-12.438 0-5.845-4.097-11.053-10.057-12.255-1.611-.326-3.278-.326-4.885 0-6.012 1.21-10.059 6.462-10.059 12.255 0 6.459 4.928 11.811 11.272 12.438z"/></g></svg>