<svg id="Layer_1" enable-background="new 0 0 512 512" height="512" viewBox="0 0 512 512" width="512" xmlns="http://www.w3.org/2000/svg"><path d="m487.734 115.43h-368.403l-16.208-67.139c-2.301-9.531-7.529-17.728-15.121-23.705-7.623-6.002-16.814-9.174-26.58-9.174h-37.156c-13.38 0-24.266 10.885-24.266 24.266s10.886 24.266 24.266 24.266h32.82l59.347 245.84c-7.169 3.388-13.784 8.03-19.408 13.654-13.017 13.016-20.186 30.275-20.186 48.597s7.168 35.581 20.186 48.598c10.366 10.366 23.598 17.068 37.852 19.324 2.364 31.621 28.83 56.632 61.044 56.632 31.922 0 58.203-24.557 60.979-55.77h75.008c2.776 31.213 29.057 55.77 60.979 55.77 33.765 0 61.235-27.47 61.235-61.235 0-33.766-27.47-61.236-61.235-61.236-16.988 0-32.378 6.958-43.483 18.168h-110c-11.104-11.211-26.494-18.168-43.482-18.168s-32.378 6.958-43.482 18.168h-6.816c-5.361 0-10.434-2.12-14.283-5.968-3.848-3.849-5.968-8.921-5.968-14.283 0-5.361 2.12-10.434 5.968-14.282 3.849-3.849 8.921-5.968 14.283-5.968h105.923c10.774 0 19.911-7.137 22.936-16.931h127.206c15.048 0 29.334-4.673 41.314-13.515 11.901-8.783 20.544-21.053 24.995-35.482l42.417-137.523c1.052-2.759 1.585-5.663 1.585-8.637 0-13.382-10.886-24.267-24.266-24.267zm-100.398 134.961h-71.475v-51.808h71.475zm16-51.808h74.844c-5.457 17.683-11.282 36.564-15.986 51.808h-58.859v-51.808zm-16 120.271h-71.475v-52.463h71.475zm-135.79-15.602h-23.159v-36.861h71.475v52.463h-25.835c-3.413-9.103-12.201-15.602-22.481-15.602zm48.316-104.669v51.808h-71.475v-51.808zm-71.475-16v-51.153h71.475v51.154h-71.475zm-16 67.808h-60.475l-12.507-51.808h72.982zm0 16v36.861h-47.714l-8.899-36.861zm103.475-83.808v-51.153h71.475v51.154h-71.475zm-103.475-51.153v51.154h-76.845l-12.349-51.154zm180.501 258.687c24.943 0 45.235 20.292 45.235 45.236 0 24.943-20.292 45.235-45.235 45.235s-45.236-20.292-45.236-45.235 20.292-45.236 45.236-45.236zm-54.91 18.169c-2.547 5.146-4.384 10.699-5.4 16.533h-76.346c-1.016-5.834-2.853-11.387-5.4-16.533zm-142.056-18.169c24.943 0 45.235 20.292 45.235 45.236 0 24.943-20.292 45.235-45.235 45.235s-45.235-20.292-45.235-45.235 20.292-45.236 45.235-45.236zm63.624-62.332c0 4.411-3.589 8-8 8h-105.923c-9.635 0-18.725 3.784-25.596 10.654s-10.654 15.96-10.654 25.596 3.784 18.726 10.654 25.597c5.798 5.797 13.179 9.386 21.132 10.369-2.484 4.953-4.314 10.286-5.38 15.889-10.318-1.964-19.868-6.999-27.439-14.57-9.995-9.995-15.499-23.236-15.499-37.284s5.504-27.289 15.499-37.284c5.655-5.655 12.605-10.017 20.101-12.615 3.892-1.349 6.124-5.432 5.157-9.436l-61.991-256.787c-1.152-4.767-5.244-7.97-10.184-7.97h-37.157c-4.558 0-8.266-3.708-8.266-8.266s3.708-8.266 8.266-8.266h37.157c6.139 0 11.908 1.987 16.682 5.746 4.743 3.734 8.016 8.882 9.465 14.888l63.028 261.084c.867 3.592 4.081 6.123 7.776 6.123h93.172c4.411 0 8 3.589 8 8zm173.956-19.319c-8.771 6.473-19.17 10.032-30.166 10.356v-52.431h53.922c-2.797 9.064-4.55 14.75-4.55 14.75-3.435 11.138-10.077 20.587-19.206 27.325zm61.919-165.72c-.028.07-5.389 17.437-12.303 39.838h-79.782v-51.154h84.397c4.558 0 8.266 3.708 8.266 8.266.001 1.057-.194 2.084-.578 3.05zm-299.499 322.282c16.363 0 29.675-13.312 29.675-29.675s-13.313-29.675-29.675-29.675-29.675 13.313-29.675 29.675 13.312 29.675 29.675 29.675zm0-43.35c7.541 0 13.675 6.135 13.675 13.675s-6.135 13.675-13.675 13.675-13.675-6.134-13.675-13.675 6.134-13.675 13.675-13.675zm196.966 43.35c16.363 0 29.675-13.312 29.675-29.675s-13.313-29.675-29.675-29.675-29.675 13.313-29.675 29.675 13.312 29.675 29.675 29.675zm0-43.35c7.541 0 13.675 6.135 13.675 13.675s-6.135 13.675-13.675 13.675-13.675-6.134-13.675-13.675 6.134-13.675 13.675-13.675z"/></svg>