<svg height="512pt" viewBox="-38 0 511 512" width="512pt" xmlns="http://www.w3.org/2000/svg"><path d="m123.667969 322.777344c-4.140625 0-7.5 3.359375-7.5 7.5v17.101562c0 4.144532 3.359375 7.5 7.5 7.5 4.144531 0 7.5-3.355468 7.5-7.5v-17.101562c0-4.140625-3.355469-7.5-7.5-7.5zm0 0"/><path d="m305.144531 330.277344v17.101562c0 4.144532 3.355469 7.5 7.5 7.5 4.140625 0 7.5-3.355468 7.5-7.5v-17.101562c0-4.140625-3.359375-7.5-7.5-7.5-4.144531 0-7.5 3.359375-7.5 7.5zm0 0"/><path d="m235.832031 341.253906c-4.308593 4.925782-10.75 7.753906-17.675781 7.753906s-13.367188-2.828124-17.671875-7.753906c-2.726563-3.121094-7.464844-3.4375-10.585937-.710937-3.117188 2.726562-3.4375 7.464843-.710938 10.582031 7.15625 8.1875 17.714844 12.882812 28.96875 12.882812s21.8125-4.695312 28.96875-12.882812c2.726562-3.117188 2.40625-7.855469-.710938-10.582031-3.121093-2.726563-7.855468-2.40625-10.582031.710937zm0 0"/><path d="m61.019531 512h314.277344c37.003906 0 65.953125-34.371094 59.648437-70.84375l-6.714843-38.847656c-.707031-4.082032-4.585938-6.820313-8.667969-6.113282-4.082031.703126-6.816406 4.585938-6.113281 8.667969 0 0 6.710937 38.808594 6.714843 38.847657 4.746094 27.457031-17.050781 53.289062-44.867187 53.289062 0 0-313.902344 0-314.277344 0-27.8125 0-49.601562-25.90625-44.867187-53.289062l45.609375-263.890626c3.261719-15.59375 17.171875-26.902343 33.113281-26.902343h10.144531v32.65625c0 14.414062 11.726563 26.140625 26.144531 26.140625 14.414063 0 26.140626-11.726563 26.140626-26.140625v-32.65625h121.707031v32.65625c0 14.414062 11.726562 26.140625 26.144531 26.140625 14.414062 0 26.140625-11.726563 26.140625-26.140625v-32.65625h10.144531c15.945313 0 29.851563 11.308593 33.109375 26.902343l33.714844 195.042969c.703125 4.082031 4.582031 6.820313 8.667969 6.113281 4.082031-.703124 6.816406-4.585937 6.113281-8.667968l-33.734375-195.160156c-.015625-.078126-.027344-.15625-.042969-.234376-4.644531-22.597656-24.761719-38.996093-47.828125-38.996093h-10.144531v-24.78125c-.003906-62.382813-50.757813-113.136719-113.140625-113.136719-19.027344 0-37.863281 4.84375-54.472656 14.003906-3.625 2-4.945313 6.5625-2.945313 10.1875s6.5625 4.945313 10.1875 2.945313c14.398438-7.941407 30.730469-12.136719 47.230469-12.136719 54.113281 0 98.136719 44.023438 98.136719 98.136719v72.4375c0 6.144531-4.996094 11.140625-11.140625 11.140625-6.144532 0-11.144532-4.996094-11.144532-11.140625v-72.4375c0-41.824219-34.027343-75.851563-75.851562-75.851563-41.828125 0-75.855469 34.027344-75.855469 75.851563v72.4375c0 6.144531-4.996093 11.140625-11.140625 11.140625-6.144531 0-11.140625-4.996094-11.140625-11.140625v-72.4375c0-25.988281 10.101563-50.5 28.449219-69.023438 2.914062-2.941406 2.894531-7.691406-.050781-10.605469-2.941407-2.917968-7.6875-2.894531-10.605469.050782-21.148438 21.347656-32.792969 49.609375-32.792969 79.578125v24.78125h-10.148437c-23.066406 0-43.179688 16.398437-47.828125 38.996093-.015625.078126-.027344.15625-.042969.234376 0 0-45.597656 263.792968-45.632812 264.007812-6.304688 36.492188 22.667968 70.84375 59.652343 70.84375zm157.136719-459.714844c33.554688 0 60.855469 27.296875 60.855469 60.851563v24.78125h-121.710938v-24.78125c0-33.554688 27.300781-60.851563 60.855469-60.851563zm0 0"/></svg>