<svg id="Layer_1" enable-background="new 0 0 512 512" height="512" viewBox="0 0 512 512" width="512" xmlns="http://www.w3.org/2000/svg"><path d="m484.631 420.126c-14.793-47.771-45.096-90.669-85.328-120.795-41.617-31.163-91.17-47.635-143.303-47.635-52.131 0-101.685 16.472-143.302 47.635-40.232 30.126-70.536 73.025-85.329 120.795-6.099 19.69-2.625 40.44 9.529 56.929 12.156 16.488 30.95 25.945 51.564 25.945h335.076c20.614 0 39.408-9.457 51.563-25.945 12.155-16.489 15.628-37.239 9.53-56.929zm-28.848 42.687c-7.583 10.288-19.336 16.187-32.245 16.187h-335.076c-12.909 0-24.662-5.899-32.245-16.187-7.582-10.286-9.74-23.257-5.922-35.588 28.066-90.634 110.732-151.529 205.705-151.529s177.639 60.895 205.705 151.529c3.818 12.332 1.66 25.302-5.922 35.588zm-199.781-246.68c57.106 0 103.566-46.459 103.566-103.566s-46.46-103.567-103.566-103.567c-57.107 0-103.567 46.46-103.567 103.567s46.46 103.566 103.567 103.566zm0-183.133c43.873 0 79.566 35.694 79.566 79.567s-35.693 79.566-79.566 79.566c-43.874 0-79.567-35.693-79.567-79.566s35.693-79.567 79.567-79.567z"/></svg>