<svg id="Capa_1" enable-background="new 0 0 512 512" height="512" viewBox="0 0 512 512" width="512" xmlns="http://www.w3.org/2000/svg"><g><path d="m309.473 241.482c6.266 0 11.345-5.08 11.345-11.346s-5.08-11.346-11.345-11.346c-6.266 0-11.346 5.08-11.346 11.346s5.08 11.346 11.346 11.346z"/><path d="m231.976 268.216h48.048c4.142 0 7.5-3.358 7.5-7.5 0-4.143-3.358-7.5-7.5-7.5h-48.048c-4.142 0-7.5 3.357-7.5 7.5 0 4.141 3.358 7.5 7.5 7.5z"/><path d="m202.527 241.482c6.266 0 11.346-5.08 11.346-11.346s-5.08-11.346-11.346-11.346-11.345 5.08-11.345 11.346 5.079 11.346 11.345 11.346z"/><path d="m436.969 437.06c48.385-48.354 75.031-112.655 75.031-181.06 0-68.379-26.629-132.666-74.982-181.019-48.352-48.352-112.639-74.981-181.018-74.981s-132.666 26.629-181.019 74.981c-48.352 48.353-74.981 112.64-74.981 181.019 0 68.543 26.718 132.917 75.233 181.261 48.266 48.096 112.482 74.72 180.701 74.738.022 0 .043.001.065.001s.043-.001.065-.001c67.451-.018 132.025-26.091 180.905-74.939zm-180.914 59.939c-.018 0-.037 0-.055 0s-.036 0-.055 0c-19.39 0-39.474-2.334-59.346-7.381v-60.998c0-4.142-3.358-7.5-7.5-7.5h-53.371c7.145-21.52 19.98-38.722 38.248-51.225 12.263-8.393 23.553-12.132 28.008-13.389 17.047 6.773 35.294 10.294 54.016 10.294 18.585 0 36.843-3.471 54.011-10.293 4.508 1.272 15.776 5.014 28.012 13.388 18.268 12.502 31.103 29.705 38.248 51.225h-53.371c-4.142 0-7.5 3.358-7.5 7.5v60.999c-19.696 5.001-39.739 7.38-59.345 7.38zm-124.246-60.879h49.791v49.171c-18.348-5.942-35.926-14.095-52.411-24.313.209-8.697 1.086-17.023 2.62-24.858zm173.709-285.819c-13.729-12.141-34.433-12.134-48.15-.004-30.848 27.215-84.613 30.148-125.845 27.735 17.945-52.894 67.888-89.102 124.477-89.102 56.468 0 106.133 35.865 124.261 88.44-25.748-2.541-55.356-9.96-74.743-27.069zm-178.065 42.505c46.158 3.116 105.318-.799 139.845-31.268 8.062-7.128 20.221-7.129 28.29.005 23.596 20.819 57.465 28.806 88.966 31.274 1.916 9.011 2.886 18.252 2.886 27.542 0 72.471-58.971 131.44-131.44 131.44-72.322 0-131.44-58.816-131.44-131.44 0-9.304.972-18.546 2.893-27.553zm255.358 268.172c-16.485 10.218-34.063 18.371-52.411 24.313v-49.171h49.791c1.533 7.835 2.411 16.161 2.62 24.858zm-367.811-204.978c0-64.372 25.069-124.893 70.588-170.412s106.04-70.588 170.412-70.588 124.892 25.068 170.412 70.588 70.588 106.04 70.588 170.412c0 64.396-25.085 124.93-70.634 170.449-9.109 9.103-18.826 17.373-29.044 24.802-.661-8.52-1.929-16.695-3.817-24.414 0-.001-.001-.002-.001-.003-11.723-47.992-44.336-69.984-64.895-79.339 44.074-25.27 73.831-72.792 73.831-127.136 0-12.357-1.542-24.642-4.585-36.512 0-.001 0-.001 0-.002 0 0 0-.001 0-.002-16.622-64.715-74.955-109.913-141.855-109.913-80.622 0-146.44 65.313-146.44 146.43 0 54.344 29.757 101.867 73.831 127.136-20.559 9.354-53.173 31.347-64.895 79.339 0 .001-.001.002-.001.003-1.887 7.715-3.155 15.886-3.816 24.401-10.147-7.375-19.801-15.579-28.857-24.603-45.671-45.51-70.822-106.109-70.822-170.636z"/></g></svg>