<svg id="Layer_1" enable-background="new 0 0 512 512" height="512" viewBox="0 0 512 512" width="512" xmlns="http://www.w3.org/2000/svg"><path d="m256 4c-138.953 0-252 113.047-252 252s113.047 252 252 252 252-113.047 252-252-113.047-252-252-252zm0 480c-125.72 0-228-102.28-228-228s102.28-228 228-228 228 102.28 228 228-102.28 228-228 228zm53.174-228 56.48-56.48c14.66-14.66 14.66-38.514 0-53.174-7.102-7.102-16.544-11.013-26.587-11.013s-19.485 3.911-26.587 11.013l-56.48 56.48-56.48-56.48c-7.102-7.102-16.544-11.013-26.587-11.013s-19.485 3.911-26.587 11.013-11.013 16.544-11.013 26.587 3.911 19.485 11.013 26.587l56.48 56.48-56.48 56.48c-7.102 7.102-11.013 16.544-11.013 26.587s3.911 19.485 11.013 26.587c14.66 14.66 38.513 14.66 53.174 0l56.48-56.479 56.48 56.479c7.331 7.331 16.957 10.996 26.587 10.995 9.627-.001 19.258-3.666 26.587-10.995 7.102-7.102 11.013-16.544 11.013-26.587s-3.911-19.485-11.013-26.587zm39.51 92.684c-5.302 5.303-13.93 5.304-19.233 0l-64.965-64.965c-2.343-2.343-5.414-3.515-8.485-3.515s-6.142 1.172-8.485 3.515l-64.965 64.965c-5.303 5.302-13.931 5.302-19.233 0-2.569-2.568-3.983-5.983-3.983-9.616s1.415-7.048 3.983-9.616l64.965-64.966c4.686-4.686 4.686-12.284 0-16.97l-64.965-64.966c-2.569-2.569-3.983-5.984-3.983-9.616 0-3.633 1.415-7.048 3.983-9.617s5.984-3.983 9.616-3.983c3.633 0 7.048 1.415 9.617 3.983l64.965 64.966c2.25 2.25 5.303 3.515 8.485 3.515s6.235-1.264 8.485-3.515l64.965-64.966c2.569-2.569 5.984-3.983 9.616-3.983 3.633 0 7.048 1.415 9.617 3.983 5.302 5.303 5.303 13.931 0 19.233l-64.965 64.966c-4.686 4.687-4.686 12.285 0 16.97l64.965 64.966c5.302 5.302 5.302 13.929 0 19.232z"/></svg>