<svg id="Capa_1" enable-background="new 0 0 512 512" height="512" viewBox="0 0 512 512" width="512" xmlns="http://www.w3.org/2000/svg"><g><path d="m226.953 252.206 66.356 66.356c12.521 12.522 32.897 12.522 45.419 0 12.521-12.523 12.521-32.898 0-45.419l-66.356-66.356 66.356-66.356c12.522-12.521 12.522-32.896 0-45.419-12.521-12.521-32.896-12.522-45.419 0l-66.356 66.356-66.357-66.357c-12.521-12.52-32.896-12.52-45.418 0-12.551 12.551-12.553 32.867 0 45.419l66.356 66.356-66.356 66.356c-12.551 12.55-12.553 32.866 0 45.419 12.523 12.523 32.898 12.521 45.419 0zm-101.169 55.75c-6.689-6.689-6.69-17.516 0-24.206l71.66-71.66c2.929-2.929 2.929-7.678 0-10.606l-71.66-71.66c-6.688-6.688-6.691-17.516 0-24.206 6.674-6.673 17.533-6.673 24.207 0l71.66 71.66c2.929 2.929 7.678 2.929 10.606 0l71.659-71.659c6.675-6.672 17.533-6.675 24.207 0 6.673 6.674 6.673 17.533 0 24.206l-71.66 71.66c-2.929 2.929-2.929 7.678 0 10.606l71.66 71.66c6.673 6.673 6.673 17.532 0 24.206-6.674 6.674-17.532 6.674-24.206 0l-71.66-71.66c-2.929-2.929-7.678-2.929-10.606 0l-71.66 71.66c-6.675 6.672-17.533 6.673-24.207-.001z"/><path d="m285.042 0h-58.094c-114.02 0-206.782 92.762-206.782 206.782 0 85.485 52.138 159.021 126.282 190.477v44.768h-10.895c-19.292 0-34.987 15.695-34.987 34.987s15.695 34.986 34.987 34.986h45.881c9.301 0 17.983-3.657 24.409-9.935 6.307 6.141 14.911 9.935 24.388 9.935h45.881c19.292 0 34.986-15.695 34.986-34.986v-65.077c101.77-12.852 180.734-99.954 180.734-205.155.002-114.02-92.765-206.782-206.79-206.782zm-249.876 206.782c0-105.749 86.033-191.782 191.782-191.782 105.754 0 191.792 86.033 191.792 191.782 0 105.754-86.037 191.792-191.792 191.792-105.749 0-191.782-86.039-191.782-191.792zm181.256 206.526c3.487.176 6.996.266 10.526.266h14.179v28.453h-10.895c-4.903 0-9.571 1.018-13.811 2.847v-31.566zm-34.987 83.692h-45.881c-11.021 0-19.987-8.966-19.987-19.986 0-11.021 8.966-19.987 19.987-19.987h18.395c4.142 0 7.5-3.358 7.5-7.5v-22.496c12.977 3.841 26.341 6.54 39.973 8.038v22.099c-4.007 5.825-6.176 12.796-6.176 19.846 0 4.152.793 8.389 2.137 12.045-3.743 4.966-9.598 7.941-15.948 7.941zm94.679 0h-45.881c-11.056 0-19.987-9.014-19.987-19.986 0-11.023 8.975-19.987 19.987-19.987h18.395c4.142 0 7.5-3.358 7.5-7.5v-14.891c13.646-1.719 27.01-4.646 39.973-8.72v51.097c-.001 11.021-8.967 19.987-19.987 19.987zm31.297-99.723c76.4-32.386 126.328-107.321 126.328-190.495 0-84.974-51.783-158.883-126.326-190.485 95.255 11.113 169.42 92.301 169.42 190.485.001 98.19-74.166 179.382-169.422 190.495z"/></g></svg>