<svg id="Capa_1" enable-background="new 0 0 512 512" height="512" viewBox="0 0 512 512" width="512" xmlns="http://www.w3.org/2000/svg"><g><path d="m512 464.9v-17.5c0-18.534-14.5-33.738-32.75-34.883v-185.377h12.49c14.826 0 24.19-15.906 17.036-28.865l-82.991-150.281c-12.206-22.115-35.483-35.854-60.745-35.854h-209.65c-25.263 0-48.539 13.739-60.746 35.856l-82.979 150.279c-5.841 10.58-.688 23.147 9.525 27.384v189.612c-12.449 5.356-21.19 17.739-21.19 32.129v17.5c0 19.277 15.683 34.96 34.96 34.96h442.08c19.277 0 34.96-15.683 34.96-34.96zm-154.63-141.025c0-6.338 5.157-11.495 11.495-11.495h32.699c6.338 0 11.495 5.157 11.495 11.495v88.564h-55.689zm-15 0v88.564h-36.19v-186.166c8.963-2.097 16.774-7.968 21.274-16.116l57.766-104.612 57.765 104.61c4.372 7.932 12.067 13.96 21.266 16.118v186.167h-36.19v-88.564c0-14.609-11.886-26.495-26.495-26.495h-32.699c-14.611-.001-26.497 11.885-26.497 26.494zm-51.19-96.735v185.3h-254.99v-185.3zm-256.22 200.3h235.032c-4.219 6.1-6.272 13.037-6.272 19.96v17.5c0 7.067 2.171 14.071 6.272 19.96h-235.032c-11.006 0-19.96-8.954-19.96-19.96v-17.5c0-11.006 8.954-19.96 19.96-19.96zm456.78-215.3h-19.99c-6.503 0-12.493-3.537-15.632-9.231l-64.333-116.504c-2.847-5.157-10.281-5.161-13.131 0l-64.33 116.5c-3.153 5.707-9.154 9.235-15.645 9.235h-269.989c-3.398 0-5.532-3.648-3.894-6.615l82.979-150.28c9.569-17.336 27.813-28.105 47.614-28.105h209.65c19.801 0 38.045 10.769 47.614 28.104l82.991 150.281c1.639 2.97-.509 6.615-3.904 6.615zm5.26 252.76c0 11.006-8.954 19.96-19.96 19.96h-178.36c-11.006 0-19.96-8.954-19.96-19.96v-17.5c0-11.036 8.98-19.96 19.96-19.96h178.36c11.006 0 19.96 8.954 19.96 19.96z"/><circle cx="145.344" cy="122.527" r="11.387"/><path d="m223.123 160.717h-48.223c-4.142 0-7.5-3.358-7.5-7.5s3.358-7.5 7.5-7.5h48.223c4.142 0 7.5 3.358 7.5 7.5s-3.358 7.5-7.5 7.5z"/><path d="m252.679 133.913c-6.289 0-11.387-5.098-11.387-11.387s5.098-11.387 11.387-11.387 11.387 5.098 11.387 11.387c0 6.29-5.098 11.387-11.387 11.387z"/><path d="m234.717 341.174v-42.768c0-16.242-13.214-29.456-29.456-29.456h-83.153c-16.242 0-29.456 13.214-29.456 29.456v42.768c0 16.242 13.214 29.456 29.456 29.456h83.153c16.242 0 29.456-13.214 29.456-29.456zm-15 0c0 7.971-6.485 14.456-14.456 14.456h-83.153c-7.971 0-14.456-6.485-14.456-14.456v-42.768c0-7.971 6.485-14.456 14.456-14.456h83.153c7.971 0 14.456 6.485 14.456 14.456z"/></g></svg>