<svg id="Capa_1" enable-background="new 0 0 512 512" height="512" viewBox="0 0 512 512" width="512" xmlns="http://www.w3.org/2000/svg"><g><path d="m217.897 294.098c53.124 53.124 139.113 53.132 192.244 0 53.124-53.124 53.132-139.113 0-192.244-53.123-53.124-139.113-53.131-192.244 0-53.124 53.123-53.132 139.113 0 192.244zm10.605-181.639c47.264-47.263 123.764-47.269 171.033 0 47.262 47.263 47.269 123.764 0 171.033-47.261 47.262-123.764 47.269-171.033 0-47.263-47.263-47.267-123.765 0-171.033z"/><circle cx="359.827" cy="228.369" r="11.433"/><path d="m277.517 189.636c-2.929 2.929-2.929 7.677 0 10.606l34.236 34.236c2.928 2.929 7.677 2.929 10.605 0 2.929-2.929 2.929-7.677 0-10.606l-34.235-34.236c-2.929-2.929-7.677-2.929-10.606 0z"/><path d="m291.709 160.251c4.465-4.464 4.465-11.703 0-16.168-4.465-4.464-11.704-4.464-16.168 0-4.464 4.465-4.464 11.704 0 16.168 4.464 4.465 11.704 4.465 16.168 0z"/><path d="m119.346 487.115 95.429-117.806c73.674 42.838 172.787 35.041 239.203-31.374 77.35-77.351 77.363-202.556 0-279.917-77.349-77.35-202.555-77.363-279.918 0-64.716 64.716-75.15 163.46-31.327 239.164l-117.854 95.467c-30.906 25.035-33.433 71.465-5.215 99.683 28.315 28.316 74.714 25.606 99.682-5.217zm65.319-418.492c71.49-71.489 187.206-71.5 258.706 0 71.489 71.488 71.499 187.206 0 258.706-72.206 72.206-188.249 70.428-258.706 0-71.025-71.055-71.613-187.092 0-258.706zm-150.344 335.68 116.458-94.337c6.669 9.689 14.638 19.322 23.281 27.968 8.569 8.565 18.045 16.454 27.963 23.289l-94.331 116.451c-19.444 24.005-55.506 25.967-77.422 4.051-21.844-21.842-20.034-57.913 4.051-77.422z"/></g></svg>