<svg id="Capa_1" enable-background="new 0 0 512.034 512.034" height="512" viewBox="0 0 512.034 512.034" width="512" xmlns="http://www.w3.org/2000/svg"><path d="m270.084 205.211c4.143 0 7.5-3.358 7.5-7.5v-10.916c0-4.142-3.357-7.5-7.5-7.5s-7.5 3.358-7.5 7.5v10.916c0 4.143 3.358 7.5 7.5 7.5zm234.297 204.723c-9.685-19.064-21.126-37.385-34.007-54.454-2.493-3.307-7.196-3.963-10.504-1.469-3.307 2.495-3.964 7.198-1.469 10.504 3.549 4.704 6.97 9.517 10.284 14.407-5.168 7.013-9.797 14.523-14.29 21.837-7.179 11.684-13.959 22.719-22.438 31.199-8.48 8.48-19.516 15.26-31.199 22.438-7.311 4.492-14.818 9.119-21.829 14.284-32.433-22.021-61.136-49.471-84.548-80.993 40.44-19.943 73.367-52.871 93.309-93.311 17.326 12.863 33.493 27.355 48.147 43.176 1.478 1.596 3.487 2.403 5.504 2.403 1.823 0 3.651-.661 5.095-1.998 3.039-2.815 3.221-7.56.405-10.599-16.031-17.308-33.815-33.071-52.895-46.969 9.471-23.524 14.696-49.196 14.696-76.068 0-112.663-91.658-204.321-204.322-204.321-48.332 0-95.226 17.186-132.042 48.393-3.159 2.678-3.55 7.411-.872 10.571 2.679 3.159 7.411 3.55 10.571.872 34.111-28.913 77.559-44.836 122.343-44.836 104.393 0 189.321 84.929 189.321 189.321s-84.929 189.32-189.321 189.32c-104.391 0-189.32-84.929-189.32-189.32 0-43.367 15.034-85.746 42.334-119.331 2.613-3.214 2.126-7.938-1.089-10.55-3.216-2.614-7.94-2.125-10.55 1.089-29.466 36.25-45.695 81.99-45.695 128.792 0 112.663 91.657 204.32 204.32 204.32 26.863 0 52.527-5.221 76.044-14.686 25.77 35.372 57.899 65.935 94.386 89.97.218.161.441.31.673.445 11.121 7.291 22.641 13.98 34.512 20.01 10.135 5.148 21.039 7.652 31.854 7.652 18.188 0 36.114-7.091 49.635-20.611 21.558-21.557 26.765-54.305 12.957-81.487zm-23.565 70.882c-16.954 16.955-42.708 21.05-64.089 10.191-8.26-4.196-16.341-8.728-24.231-13.568 5.219-3.566 10.724-6.952 16.116-10.264 11.909-7.317 24.224-14.883 33.953-24.612 9.728-9.729 17.295-22.044 24.611-33.953 3.311-5.39 6.697-10.893 10.26-16.11 4.841 7.904 9.386 15.988 13.572 24.226 10.859 21.379 6.764 47.134-10.192 64.09zm-276.496-135.659c77.658 0 140.837-63.179 140.837-140.836 0-77.658-63.179-140.836-140.837-140.836-77.657 0-140.836 63.179-140.836 140.836.001 77.657 63.179 140.836 140.836 140.836zm0-266.673c69.387 0 125.837 56.45 125.837 125.836s-56.45 125.836-125.837 125.836c-69.386 0-125.836-56.45-125.836-125.836s56.451-125.836 125.836-125.836zm-65.762 126.727c4.143 0 7.5-3.358 7.5-7.5v-10.916c0-4.142-3.357-7.5-7.5-7.5s-7.5 3.358-7.5 7.5v10.916c0 4.143 3.357 7.5 7.5 7.5zm65.762 8.383c8.813 0 17.193-3.817 22.992-10.472 2.722-3.123 2.396-7.86-.727-10.582-3.124-2.721-7.862-2.396-10.582.727-2.95 3.385-7.208 5.326-11.684 5.326s-8.733-1.941-11.684-5.326c-2.722-3.124-7.46-3.448-10.582-.727s-3.448 7.459-.727 10.582c5.801 6.655 14.182 10.472 22.994 10.472z"/></svg>