<svg id="Capa_1" enable-background="new 0 0 512 512" height="512" viewBox="0 0 512 512" width="512" xmlns="http://www.w3.org/2000/svg"><g><path d="m302.468 296.345c-23.156 23.156-23.156 60.833 0 83.99 23.208 23.209 60.777 23.213 83.99 0 23.156-23.156 23.156-60.833 0-83.99-23.21-23.21-60.777-23.214-83.99 0zm73.384 73.383c-17.347 17.347-45.427 17.35-62.777 0-17.308-17.308-17.308-45.469 0-62.777 17.348-17.348 45.427-17.35 62.777 0 17.308 17.308 17.308 45.469 0 62.777z"/><path d="m478.125 390.232-31.798-23.13c10.023-35.704 1.032-75.496-27.05-103.576-1.613-1.613-3.27-3.155-4.959-4.642l.04-113.737c0-44.113-35.889-80.001-80.001-80.001h-50-11.426c-5.485-10.264-16.305-17.267-28.733-17.267h-14.764v-5.512c.001-23.362-19.005-42.367-42.366-42.367s-42.367 19.005-42.367 42.366v5.512h-14.764c-12.428 0-23.248 7.002-28.733 17.267h-11.425c-44.113 0-80.001 35.889-80.001 80.001v286.852c0 44.113 35.888 80.002 80.001 80.002h244.578c26.931 0 51.352-13.143 66.122-34.95 22.467 24.613 60.995 25.516 84.603 1.908 25.443-25.443 22.097-67.591-6.957-88.726zm-69.454 12.315c-35.753 35.758-93.366 35.049-128.415 0-35.679-35.68-35.168-93.246 0-128.416 35.438-35.438 93.05-35.365 128.415 0 36.104 36.105 34.813 93.603 0 128.416zm-278.733-257.256h114.261c11.33 0 21.393-5.87 27.191-14.66h12.968c8.004 0 14.516 6.512 14.516 14.516v97.656c-10.884 5.206-20.795 12.293-29.225 20.723-4.319 4.319-8.179 8.925-11.594 13.751-4.018-2.414-8.648-3.726-13.513-3.726h-114.948c-14.532 0-26.354 11.822-26.354 26.354s11.822 26.354 26.354 26.354h109.807c-3.529 30.964 6.55 63.198 30.248 86.896 8.527 8.525 18.397 15.527 29.108 20.669-.901 7.146-7.014 12.691-14.4 12.691h-194.578c-8.004 0-14.517-6.512-14.517-14.516v-286.853c0-8.004 6.512-14.516 14.517-14.516h12.967c5.899 8.942 16.041 14.661 27.192 14.661zm112.25 165.967h-112.594c-6.261 0-11.354-5.093-11.354-11.354 0-6.26 5.093-11.354 11.354-11.354h114.948c2.056 0 4.02.545 5.73 1.556-3.443 6.725-6.149 13.804-8.084 21.152zm88.759-231.113h3.411c35.842 0 65.001 29.16 65.001 65l-.037 102.714c-10.41-6.324-22.384-11.023-34.995-13.425 0-.101.033-93.389.031-88.381.001-27.968-13.251-51.416-33.411-65.908zm-54.191 0h7.602c35.842 0 65.001 29.16 65.001 65l-.031 87.521c-12.143-.574-24.103.921-35.454 4.334v-91.853c0-16.275-13.241-29.516-29.516-29.516h-7.737c.247-2.786.085-1.372.136-35.193 0-.099 0-.196-.001-.293zm-146.818-17.267h22.264c4.142 0 7.5-3.358 7.5-7.5v-13.012c0-15.09 12.277-27.366 27.367-27.366s27.367 12.276 27.367 27.366v13.012c0 4.142 3.358 7.5 7.5 7.5h22.264c9.842 0 17.559 8.069 17.559 17.559v32.295c0 9.725-7.953 17.559-17.559 17.559h-114.262c-9.632 0-17.558-7.858-17.558-17.559v-32.295c0-.014.002-.028.002-.042.022-9.527 7.772-17.517 17.556-17.517zm-105.16 369.121v-286.853c0-35.842 29.16-65.001 65.001-65.001h7.602c-.001.089-.001.179-.001.268 0 .008-.001.016-.001.024.051 34.041-.111 32.411.136 35.193h-7.736c-16.275 0-29.517 13.241-29.517 29.516v286.852c0 16.275 13.241 29.516 29.517 29.516h194.579c13.721 0 25.285-9.412 28.577-22.118 11.287 3.511 23.191 5.12 35.292 4.669-5.677 30.355-32.249 52.935-63.87 52.935h-194.578c-35.842 0-65.001-29.16-65.001-65.001zm309.579 65.001h-3.329c17.422-12.514 29.766-32.141 32.662-54.633 2.687-.493 7.37-1.603 9.506-2.203l17.563 24.143c-11.58 20.276-32.807 32.693-56.402 32.693zm140.119-28.648c-18.922 18.922-50.27 16.437-65.99-5.175-29.351-40.35-10.407-14.306-20.609-28.331 11.063-4.957 21.988-12.28 31.4-21.692 9.03-9.03 16.448-19.679 21.719-31.381l28.304 20.589c21.642 15.743 24.071 47.094 5.176 65.99z"/><path d="m187.068 109.324c13.543 0 24.562-11.019 24.562-24.562 0-13.544-11.019-24.563-24.562-24.563-13.544 0-24.563 11.019-24.563 24.563.001 13.543 11.019 24.562 24.563 24.562zm0-34.125c5.272 0 9.562 4.29 9.562 9.563 0 5.272-4.29 9.562-9.562 9.562-5.273 0-9.563-4.29-9.563-9.562.001-5.273 4.29-9.563 9.563-9.563z"/><path d="m129.594 406.254h55.375c14.532 0 26.354-11.822 26.354-26.354s-11.822-26.354-26.354-26.354h-55.375c-14.532 0-26.354 11.822-26.354 26.354s11.822 26.354 26.354 26.354zm0-37.707h55.375c6.261 0 11.354 5.093 11.354 11.354 0 6.26-5.093 11.354-11.354 11.354h-55.375c-6.261 0-11.354-5.093-11.354-11.354s5.093-11.354 11.354-11.354z"/><circle cx="235.817" cy="197.816" r="10.343"/><path d="m165.167 233.193h43.803c4.142 0 7.5-3.358 7.5-7.5s-3.358-7.5-7.5-7.5h-43.803c-4.142 0-7.5 3.358-7.5 7.5s3.358 7.5 7.5 7.5z"/><ellipse cx="138.32" cy="197.816" rx="10.343" ry="10.343" transform="matrix(.987 -.16 .16 .987 -29.9 24.711)"/></g></svg>