<svg id="Layer_1" enable-background="new 0 0 512 512" height="512" viewBox="0 0 512 512" width="512" xmlns="http://www.w3.org/2000/svg"><path d="m500.737 472.815c-2.192-49.431-19.057-96.457-48.771-135.994-29.165-38.807-68.663-67.841-114.225-83.964-3.144-1.113-6.613-.866-9.572.683-22.419 11.747-46.699 17.703-72.167 17.703-25.467 0-49.748-5.956-72.17-17.703-2.958-1.55-6.427-1.797-9.572-.683-45.562 16.123-85.062 45.157-114.228 83.963-29.715 39.537-46.579 86.563-48.771 135.996-.254 5.735 3.59 10.848 9.171 12.196 74.607 18.02 153.863 27.157 235.568 27.157s160.961-9.137 235.566-27.158c5.581-1.348 9.425-6.46 9.171-12.196zm-244.737 15.354c-76.229 0-150.217-8.128-220.105-24.172 7.472-84.419 62.015-156.579 141.612-186.771 24.31 11.802 51.329 18.017 78.496 18.017 27.166 0 54.188-6.216 78.493-18.016 79.596 30.192 134.137 102.352 141.609 186.77-69.888 16.044-143.876 24.172-220.105 24.172zm.003-257.011c63.777 0 115.663-51.886 115.663-115.664 0-63.777-51.886-115.663-115.663-115.663s-115.664 51.886-115.664 115.663 51.887 115.664 115.664 115.664zm0-207.327c50.543 0 91.663 41.12 91.663 91.663s-41.12 91.664-91.663 91.664c-50.544 0-91.664-41.12-91.664-91.664 0-50.543 41.12-91.663 91.664-91.663z"/></svg>