<svg id="Capa_1" enable-background="new 0 0 512 512" height="512" viewBox="0 0 512 512" width="512" xmlns="http://www.w3.org/2000/svg"><g><path d="m260.27 323.557h54.456c4.142 0 7.5-3.358 7.5-7.5s-3.358-7.5-7.5-7.5h-54.456c-4.142 0-7.5 3.358-7.5 7.5s3.357 7.5 7.5 7.5z"/><path d="m225.66 293.837c.823.08 1.665.08 2.46 0 6.243-.609 11.27-5.899 11.27-12.44 0-6.448-4.926-11.821-11.27-12.44-.81-.08-1.64-.08-2.46 0-6.393.64-11.27 6.037-11.27 12.44 0 6.321 4.792 11.792 11.27 12.44z"/><path d="m306.71 449.842c-17.137 0-31.079 13.942-31.079 31.079s13.942 31.079 31.079 31.079h39.359c17.137 0 31.079-13.942 31.079-31.079v-55.454h58.69c27.796 0 50.41-22.613 50.41-50.41v-256.097c0-.027.002-.053.002-.081 0-27.802-22.614-50.42-50.411-50.42h-37.946c-20.723-41.745-63.523-68.459-110.394-68.459-46.877 0-89.683 26.715-110.405 68.46h-48.92c-21.74 0-39.426 17.687-39.426 39.427v46.941c-25.729 3.656-45.583 25.819-45.583 52.542v37.286c-10.183 3.993-17.416 13.911-17.416 25.492v39.459c0 11.582 7.233 21.5 17.416 25.493v37.286c0 29.341 23.737 53.081 53.082 53.081h109.005v24.375h-8.28c-17.137 0-31.079 13.942-31.079 31.079s13.941 31.079 31.079 31.079h39.358c17.137 0 31.079-13.942 31.079-31.079v-55.454h47.581v24.375zm39.359 47.158h-39.359c-8.866 0-16.079-7.213-16.079-16.079s7.213-16.079 16.079-16.079h15.78c4.142 0 7.5-3.358 7.5-7.5v-8.458h32.158v32.037c0 8.866-7.212 16.079-16.079 16.079zm89.771-413.54c19.516 0 35.396 15.875 35.41 35.394 0 .008-.001.017-.001.025 0 19.549-15.827 35.41-35.41 35.41h-29.078c2.578-9.898 3.956-20.552 3.956-31.071 0-13.216-2.114-26.796-6.554-39.758zm-127.593 70.829h-13.25v-23.416c5.807 2.081 10.62 4.713 13 10.808 1.492 3.822 1.548 8.318.25 12.608zm-20.748-139.289c59.435 0 108.218 48.184 108.218 108.218 0 10.403-1.519 20.991-4.544 31.071h-67.513c1.077-6.135.532-12.371-1.689-18.062-5.785-14.818-18.581-18.155-26.973-21.33v-35.21c5.521 1.333 8.809 4.125 9.096 4.375 3.047 2.759 7.754 2.552 10.546-.475 2.808-3.045 2.617-7.79-.428-10.599-.424-.391-7.549-6.811-19.214-8.572v-7.173c0-4.142-3.358-7.5-7.5-7.5s-7.5 3.358-7.5 7.5v7.749c-1.099.243-2.213.521-3.353.865-10.688 3.219-18.674 12.366-20.842 23.869-1.977 10.491 1.385 20.607 8.772 26.401 3.907 3.064 8.767 5.872 15.422 8.835v29.328h-96.173c-3.111-10.364-4.544-20.836-4.544-31.071.001-60.448 49.193-108.219 108.219-108.219zm-7.501 93.27c-2.319-1.261-4.417-2.575-6.165-3.946-2.964-2.325-4.225-6.854-3.289-11.82.837-4.438 3.759-9.771 9.454-11.945zm-151.824-24.81h42.656c-4.368 12.749-6.549 26.39-6.549 39.758 0 10.057 1.254 20.691 3.956 31.071h-64.489v-46.402c0-13.47 10.957-24.427 24.426-24.427zm-87.424 186.688c0-6.935 5.686-12.376 12.376-12.376h70.28c17.667 0 32.106 14.365 32.106 32.106 0 17.761-14.457 32.106-32.106 32.106-16.063 0-55.558 0-70.28 0-6.81 0-12.376-5.553-12.376-12.377zm66.821 66.836h15.835c25.975 0 47.106-21.132 47.106-47.106s-21.132-47.106-47.106-47.106h-15.835v-2.114c0-12.11 9.852-21.963 21.962-21.963h270.347c12.11 0 21.962 9.853 21.962 21.963v98.441c0 12.11-9.852 21.963-21.962 21.963h-270.347c-12.11 0-21.962-9.853-21.962-21.963zm-49.406 35.402v-35.401h34.406v2.114c0 20.381 16.581 36.963 36.962 36.963h270.347c20.381 0 36.962-16.582 36.962-36.963v-98.441c0-20.381-16.581-36.963-36.962-36.963h-270.347c-20.381 0-36.962 16.582-36.962 36.963v2.114h-34.406v-35.402c0-20.99 17.07-38.067 38.056-38.081.009 0 .017.001.026.001h339.592c13.646 0 26.187-5.421 35.409-14.539v220.305c0 19.525-15.885 35.41-35.41 35.41h-339.591c-21.053.001-38.082-17.028-38.082-38.08zm178.165 124.614h-39.358c-8.866 0-16.079-7.213-16.079-16.079s7.213-16.079 16.079-16.079h15.78c4.142 0 7.5-3.358 7.5-7.5v-8.458h32.158v32.037c-.001 8.866-7.214 16.079-16.08 16.079z"/><path d="m346.87 293.837c.823.08 1.665.08 2.46 0 6.243-.609 11.27-5.899 11.27-12.44 0-6.448-4.926-11.821-11.27-12.44-.81-.08-1.64-.08-2.46 0-6.393.64-11.27 6.037-11.27 12.44 0 6.321 4.792 11.792 11.27 12.44z"/></g></svg>