<svg id="Capa_1" enable-background="new 0 0 512 512" height="512" viewBox="0 0 512 512" width="512" xmlns="http://www.w3.org/2000/svg"><g><path d="m424.249 1.959c-5.005 0-318.229 0-336.497 0-48.387 0-87.752 39.366-87.752 87.752v236.944c0 48.381 39.365 87.741 87.751 87.741h63.838v32.115h-8.738c-17.515 0-31.764 14.25-31.764 31.764s14.25 31.764 31.764 31.764h40.502c17.515 0 31.764-14.25 31.764-31.764v-63.879h49.399v32.115h-8.738c-17.515 0-31.764 14.25-31.764 31.764s14.25 31.764 31.764 31.764h40.502c17.515 0 31.764-14.25 31.764-31.764v-63.879h96.204c48.386 0 87.751-39.36 87.751-87.741v-236.944c.001-48.386-39.364-87.752-87.75-87.752zm-409.249 87.752c0-40.115 32.636-72.752 72.751-72.752h277.579c40.115 0 72.751 32.637 72.751 72.752v26.998c-18.466 0-404.777 0-423.081 0zm60.95 41.998h301.181v194.946c0 6.502-5.294 11.791-11.801 11.791h-277.579c-6.507 0-11.801-5.289-11.801-11.791zm-60.95 194.947v-194.947h45.95v194.946c0 14.772 12.023 26.791 26.801 26.791h277.579c14.778 0 26.801-12.019 26.801-26.791v-194.946h45.95v194.946c0 40.11-32.636 72.741-72.751 72.741-80.576 0-191.892 0-277.578 0-40.116.001-72.752-32.63-72.752-72.74zm168.354 168.385h-40.502c-9.244 0-16.764-7.521-16.764-16.764s7.521-16.764 16.764-16.764h16.238c4.142 0 7.5-3.357 7.5-7.5v-16.64h33.528v40.904c0 9.243-7.521 16.764-16.764 16.764zm112.927 0h-40.502c-9.244 0-16.764-7.521-16.764-16.764s7.521-16.764 16.764-16.764h16.238c4.142 0 7.5-3.357 7.5-7.5v-16.64h33.528v40.904c-.001 9.243-7.521 16.764-16.764 16.764zm200.719-168.385c0 40.11-32.636 72.741-72.751 72.741h-9.898c.178-.201 38.73-23.918 38.73-72.741 0-7.51 0-224.261 0-236.944 0-29.518-14.758-56.54-38.731-72.75-.001 0-.002-.001-.003-.002h9.901c40.115 0 72.751 32.637 72.751 72.752v236.944z"/><path d="m89.053 94.938c15.496 0 28.103-12.607 28.103-28.103s-12.607-28.103-28.103-28.103-28.103 12.606-28.103 28.102 12.607 28.104 28.103 28.104zm0-41.207c7.225 0 13.103 5.878 13.103 13.103s-5.878 13.103-13.103 13.103-13.103-5.877-13.103-13.103 5.878-13.103 13.103-13.103z"/><path d="m159.544 94.938c15.496 0 28.103-12.607 28.103-28.103s-12.607-28.103-28.103-28.103-28.103 12.607-28.103 28.103 12.607 28.103 28.103 28.103zm0-41.207c7.225 0 13.103 5.878 13.103 13.103s-5.878 13.103-13.103 13.103-13.103-5.878-13.103-13.103 5.878-13.103 13.103-13.103z"/><path d="m230.034 94.938c15.496 0 28.103-12.607 28.103-28.103s-12.607-28.103-28.103-28.103-28.103 12.607-28.103 28.103 12.607 28.103 28.103 28.103zm0-41.207c7.225 0 13.103 5.878 13.103 13.103s-5.878 13.103-13.103 13.103-13.103-5.878-13.103-13.103 5.878-13.103 13.103-13.103z"/><path d="m289.316 244.853c7.356 0 13.32-5.963 13.32-13.319s-5.963-13.32-13.32-13.32-13.319 5.964-13.319 13.32 5.963 13.319 13.319 13.319z"/><path d="m198.337 274.932h56.407c4.142 0 7.5-3.358 7.5-7.5 0-4.143-3.358-7.5-7.5-7.5h-56.407c-4.142 0-7.5 3.357-7.5 7.5 0 4.142 3.358 7.5 7.5 7.5z"/><path d="m163.765 244.853c7.356 0 13.32-5.963 13.32-13.319s-5.963-13.32-13.32-13.32c-7.356 0-13.319 5.964-13.319 13.32s5.963 13.319 13.319 13.319z"/></g></svg>