<?xml version="1.0" encoding="UTF-8" standalone="no"?>
<svg
   xmlns:dc="http://purl.org/dc/elements/1.1/"
   xmlns:cc="http://creativecommons.org/ns#"
   xmlns:rdf="http://www.w3.org/1999/02/22-rdf-syntax-ns#"
   xmlns:svg="http://www.w3.org/2000/svg"
   xmlns="http://www.w3.org/2000/svg"
   viewBox="0 0 256 93.333336"
   height="93.333336"
   width="256"
   xml:space="preserve"
   id="svg2"
   version="1.1"><metadata
     id="metadata8"><rdf:RDF><cc:Work
         rdf:about=""><dc:format>image/svg+xml</dc:format><dc:type
           rdf:resource="http://purl.org/dc/dcmitype/StillImage" /></cc:Work></rdf:RDF></metadata><defs
     id="defs6"><clipPath
       id="clipPath18"
       clipPathUnits="userSpaceOnUse"><path
         id="path16"
         d="M 0,70 H 192 V 0 H 0 Z" /></clipPath></defs><g
     transform="matrix(1.3333333,0,0,-1.3333333,0,93.333333)"
     id="g10"><g
       id="g12"><g
         clip-path="url(#clipPath18)"
         id="g14"><g
           transform="translate(30.04,37.4863)"
           id="g20"><path
             id="path22"
             style="fill:#ffffff;fill-opacity:1;fill-rule:nonzero;stroke:none"
             d="m 0,0 c -3.323,-1.638 -7.725,-2.48 -11.307,-2.48 -8.632,0 -17.696,5.801 -17.696,16.094 0,10.294 8.459,16.517 17.264,16.517 4.747,0 9.408,-1.263 13.25,-4.305 l -2.417,-5.568 c -2.115,4.071 -5.999,5.848 -10.143,5.848 -6.344,0 -10.185,-5.52 -10.185,-12.492 0,-7.579 5.265,-12.258 10.962,-12.258 4.057,0 8.718,2.48 11.523,5.615 z" /></g><g
           transform="translate(51.7974,46.3755)"
           id="g24"><path
             id="path26"
             style="fill:#ffffff;fill-opacity:1;fill-rule:nonzero;stroke:none"
             d="m 0,0 c 0,3.416 -1.597,7.533 -5.223,7.533 -4.1,0 -5.438,-3.93 -5.438,-7.72 0,-3.743 1.512,-7.673 5.481,-7.673 C -1.467,-7.86 0,-3.322 0,0 m -5.352,-11.37 c -6.56,0 -12.3,3.323 -12.3,11.23 0,7.345 6.301,11.182 12.429,11.182 5.87,0 12.171,-4.071 12.171,-11.042 0,-7.392 -6.042,-11.37 -12.3,-11.37" /></g><g
           transform="translate(62.2021,35.5679)"
           id="g28"><path
             id="path30"
             style="fill:#ffffff;fill-opacity:1;fill-rule:nonzero;stroke:none"
             d="M 0,0 0.043,33.406 H 6.689 V 0 Z" /></g><g
           transform="translate(74.0718,35.5679)"
           id="g32"><path
             id="path34"
             style="fill:#ffffff;fill-opacity:1;fill-rule:nonzero;stroke:none"
             d="M 0,0 0.043,33.406 H 6.689 V 0 Z" /></g><g
           transform="translate(100.3574,49.3232)"
           id="g36"><path
             id="path38"
             style="fill:#ffffff;fill-opacity:1;fill-rule:nonzero;stroke:none"
             d="M 0,0 C -0.13,2.62 -1.511,4.539 -4.058,4.539 -6.69,4.539 -8.072,2.573 -8.546,0 Z m 4.918,-11.417 c -2.501,-1.777 -5.005,-2.9 -8.76,-2.9 -6.129,0 -11.869,3.696 -11.869,11.042 0,6.971 5.136,11.463 11.265,11.463 6.215,0 10.53,-4.632 10.53,-12.072 -5.048,0.094 -9.883,0.094 -14.932,0.094 0.086,-4.258 2.459,-6.55 6.3,-6.55 3.323,0 5.827,1.684 8.071,4.257 z" /></g><g
           transform="translate(129.666,37.5322)"
           id="g40"><path
             id="path42"
             style="fill:#ffffff;fill-opacity:1;fill-rule:nonzero;stroke:none"
             d="m 0,0 c -2.375,-1.59 -5.267,-2.526 -8.114,-2.526 -6.475,0 -12.516,3.509 -12.516,11.323 0,7.251 6.127,11.088 12.128,11.088 2.761,0 6.776,-0.748 9.105,-2.386 L -1.555,12.82 c -1.337,2.153 -3.453,3.462 -6.214,3.462 -3.842,0 -6,-3.649 -6,-7.485 0,-4.212 2.461,-7.58 6.518,-7.58 3.15,0 5.481,1.544 7.854,3.556 z" /></g><g
           transform="translate(146.8877,35.895)"
           id="g44"><path
             id="path46"
             style="fill:#ffffff;fill-opacity:1;fill-rule:nonzero;stroke:none"
             d="m 0,0 c -1.597,-0.514 -3.15,-0.889 -4.789,-0.889 -3.367,0 -6.69,2.058 -6.69,6.129 v 11.977 h -2.978 v 3.79 h 2.978 v 4.492 l 6.646,1.872 v -6.364 h 4.618 v -3.79 H -4.833 V 6.083 c 0,-1.451 0.044,-3.557 1.812,-3.557 1.037,0 2.028,0.281 3.021,0.422 z" /></g><g
           transform="translate(166.2695,46.3755)"
           id="g48"><path
             id="path50"
             style="fill:#ffffff;fill-opacity:1;fill-rule:nonzero;stroke:none"
             d="m 0,0 c 0,3.416 -1.598,7.533 -5.222,7.533 -4.099,0 -5.438,-3.93 -5.438,-7.72 0,-3.743 1.512,-7.673 5.481,-7.673 C -1.468,-7.86 0,-3.322 0,0 m -5.352,-11.37 c -6.559,0 -12.299,3.323 -12.299,11.23 0,7.345 6.3,11.182 12.429,11.182 5.87,0 12.17,-4.071 12.17,-11.042 0,-7.392 -6.042,-11.37 -12.3,-11.37" /></g><g
           transform="translate(176.6738,35.5679)"
           id="g52"><path
             id="path54"
             style="fill:#ffffff;fill-opacity:1;fill-rule:nonzero;stroke:none"
             d="m 0,0 v 21.334 h 5.481 l 0.431,-2.712 c 2.288,2.994 4.792,3.227 8.071,3.227 h 0.302 l -0.689,-6.316 c -0.908,0.889 -2.03,1.217 -3.239,1.217 -2.286,0 -3.711,-2.339 -3.711,-4.96 L 6.646,0 Z" /></g><g
           transform="translate(54.0771,1.6191)"
           id="g56"><path
             id="path58"
             style="fill:#ffffff;fill-opacity:1;fill-rule:nonzero;stroke:none"
             d="m 0,0 v 1.364 l 5.642,5.733 c 1.51,1.527 2.997,3.52 2.997,5.893 0,1.94 -0.983,3.196 -2.822,3.196 -1.762,0 -2.972,-1.148 -4.054,-2.539 l -1.562,2.919 c 1.964,1.285 3.702,2.158 6.07,2.158 3.098,0 6.473,-1.693 6.473,-5.541 0,-2.921 -2.167,-4.913 -3.98,-6.715 L 5.566,3.303 c 2.72,0.026 5.44,0.026 8.16,0.026 L 13.021,0 Z" /></g><g
           transform="translate(88.3745,10.8174)"
           id="g60"><path
             id="path62"
             style="fill:#ffffff;fill-opacity:1;fill-rule:nonzero;stroke:none"
             d="m 0,0 c 0,3.33 -0.655,7.149 -4.458,7.149 -3.4,0 -4.433,-4.229 -4.433,-7.231 0,-2.894 1.234,-7.124 4.483,-7.124 C -0.857,-7.206 0,-3.085 0,0 m -4.458,-9.526 c -5.29,0 -8.815,3.466 -8.815,9.308 0,5.377 3.803,9.716 8.79,9.716 5.138,0 8.865,-3.849 8.865,-9.498 0,-5.678 -3.601,-9.526 -8.84,-9.526" /></g><g
           transform="translate(101.8418,6.2861)"
           id="g64"><path
             id="path66"
             style="fill:#ffffff;fill-opacity:1;fill-rule:nonzero;stroke:none"
             d="m 0,0 c 1.059,-1.61 2.091,-2.595 4.007,-2.595 1.862,0 3.121,1.476 3.121,3.469 0,3.139 -3.45,3.165 -5.566,3.165 l 0.177,1.885 c 2.014,0.081 4.532,0.763 4.532,3.493 0,1.527 -1.209,2.102 -2.442,2.102 -1.788,0 -2.997,-1.148 -4.055,-2.539 l -1.586,2.919 c 1.837,1.392 3.853,2.13 6.12,2.13 2.442,0 5.92,-1.064 5.92,-4.313 0,-1.747 -0.733,-3.057 -2.118,-3.956 1.839,-0.71 3.276,-2.376 3.276,-4.587 0,-4.394 -3.628,-6.168 -7.179,-6.168 -2.62,0 -4.157,0.736 -6.247,2.32 z" /></g><g
           transform="translate(133.5459,10.8174)"
           id="g68"><path
             id="path70"
             style="fill:#ffffff;fill-opacity:1;fill-rule:nonzero;stroke:none"
             d="m 0,0 c 0,3.33 -0.655,7.149 -4.458,7.149 -3.399,0 -4.434,-4.229 -4.434,-7.231 0,-2.894 1.236,-7.124 4.484,-7.124 C -0.856,-7.206 0,-3.085 0,0 m -4.458,-9.526 c -5.288,0 -8.816,3.466 -8.816,9.308 0,5.377 3.803,9.716 8.791,9.716 5.137,0 8.866,-3.849 8.866,-9.498 0,-5.678 -3.603,-9.526 -8.841,-9.526" /></g></g></g></g></svg>